<svg width="2560" height="1600" viewBox="0 0 2560 1600" fill="none" xmlns="http://www.w3.org/2000/svg">
<rect x="0.5" y="0.5" width="2559" height="1599" fill="white"/>
<rect x="0.5" y="0.5" width="2559" height="1599" stroke="black"/>
<path d="M764.114 1256V1230.43L860.136 1125.32C871.405 1113.01 880.686 1102.31 887.977 1093.22C895.269 1084.03 900.667 1075.41 904.17 1067.36C907.769 1059.22 909.568 1050.7 909.568 1041.8C909.568 1031.57 907.106 1022.71 902.182 1015.23C897.352 1007.75 890.723 1001.98 882.295 997.903C873.867 993.831 864.398 991.795 853.886 991.795C842.712 991.795 832.958 994.116 824.625 998.756C816.386 1003.3 809.994 1009.69 805.449 1017.93C800.998 1026.17 798.773 1035.83 798.773 1046.91H765.25C765.25 1029.86 769.18 1014.9 777.04 1002.02C784.9 989.144 795.6 979.106 809.142 971.909C822.778 964.712 838.072 961.114 855.023 961.114C872.068 961.114 887.172 964.712 900.335 971.909C913.498 979.106 923.82 988.812 931.301 1001.03C938.782 1013.24 942.523 1026.83 942.523 1041.8C942.523 1052.5 940.581 1062.96 936.699 1073.19C932.911 1083.32 926.282 1094.64 916.812 1107.14C907.438 1119.54 894.417 1134.69 877.75 1152.59L812.409 1222.48V1224.75H947.636V1256H764.114Z" fill="#FF5BA5"/>
<path d="M1130.39 965.091V1256H1095.16V1002.02H1093.45L1022.43 1049.18V1013.39L1095.16 965.091H1130.39Z" fill="#FF5BA5"/>
<path d="M1663.11 1256V1230.43L1759.14 1125.32C1770.41 1113.01 1779.69 1102.31 1786.98 1093.22C1794.27 1084.03 1799.67 1075.41 1803.17 1067.36C1806.77 1059.22 1808.57 1050.7 1808.57 1041.8C1808.57 1031.57 1806.11 1022.71 1801.18 1015.23C1796.35 1007.75 1789.72 1001.98 1781.3 997.903C1772.87 993.831 1763.4 991.795 1752.89 991.795C1741.71 991.795 1731.96 994.116 1723.62 998.756C1715.39 1003.3 1708.99 1009.69 1704.45 1017.93C1700 1026.17 1697.77 1035.83 1697.77 1046.91H1664.25C1664.25 1029.86 1668.18 1014.9 1676.04 1002.02C1683.9 989.144 1694.6 979.106 1708.14 971.909C1721.78 964.712 1737.07 961.114 1754.02 961.114C1771.07 961.114 1786.17 964.712 1799.34 971.909C1812.5 979.106 1822.82 988.812 1830.3 1001.03C1837.78 1013.24 1841.52 1026.83 1841.52 1041.8C1841.52 1052.5 1839.58 1062.96 1835.7 1073.19C1831.91 1083.32 1825.28 1094.64 1815.81 1107.14C1806.44 1119.54 1793.42 1134.69 1776.75 1152.59L1711.41 1222.48V1224.75H1846.64V1256H1663.11Z" fill="#FF5BA5"/>
<path d="M1378.3 1196.34V1167.36L1506.14 965.091H1527.16V1009.98H1512.95L1416.36 1162.82V1165.09H1588.52V1196.34H1378.3ZM1515.23 1256V1187.53V1174.04V965.091H1548.75V1256H1515.23Z" fill="#FF5BA5"/>
<path d="M1293.36 987.308L1281.22 999.61V1006.81L1289.95 997.962L1293.05 1001.02L1295.96 1001L1296.03 1010.57L1299.84 1006.75L1299.73 989.779L1305.86 989.737L1305.96 1005.07L1321.29 1004.96L1321.34 1011.1L1304.06 1011.21L1298.96 1016.31L1311.39 1016.22L1311.42 1019.7L1314.89 1023.12L1308.17 1029.94H1313.56L1325.49 1017.85L1329.85 1022.16L1319.09 1033.08L1330 1043.84L1325.69 1048.21L1313.39 1036.07H1306.19L1315.04 1044.8L1310.73 1049.17L1310.65 1049.09L1310.66 1050.32L1301.08 1050.39L1304.9 1054.2L1321.87 1054.09L1321.91 1060.22L1306.58 1060.33L1306.69 1075.66L1300.55 1075.7L1300.44 1058.42L1295.34 1053.33L1295.43 1065.76L1291.27 1065.78L1289.02 1068.03L1281.22 1060.23V1065.67L1294.22 1078.66L1289.88 1083L1279.04 1072.16L1268.2 1083L1263.86 1078.66L1275.09 1067.44V1060.29L1267.34 1068.03L1264.42 1065.11H1261.19V1054.08L1257.35 1057.92V1076.3H1251.21V1060.97H1235.88V1054.84H1251.76L1256.82 1049.78H1245.86V1044.76L1244.97 1043.87L1252.77 1036.07H1247.33L1234.34 1049.07L1230 1044.73L1240.84 1033.89L1230 1023.05L1234.34 1018.71L1245.56 1029.94H1252.71L1244.97 1022.19L1246.54 1020.62V1015.55H1257.57L1253.73 1011.71H1235.35V1005.57H1250.68V990.244H1256.81V1006.12L1261.87 1011.18V1000.22H1266.19L1268.27 998.109L1275.09 1004.83V999.436L1263 987.515L1267.31 983.147L1278.22 993.914L1288.99 983L1293.36 987.308ZM1281.22 1051.56L1289.25 1059.59L1289.17 1047.39L1289.41 1047.39L1281.22 1039.2V1051.56ZM1267.32 1047.95V1059.37L1275.09 1051.61V1040.18L1267.32 1047.95ZM1294.99 1044.29L1305.71 1044.22L1297.63 1036.25L1297.8 1036.07H1286.77L1294.99 1044.29ZM1253.87 1043.65H1262.95L1270.52 1036.07H1261.44L1253.87 1043.65ZM1285.33 1029.94H1299.55L1307 1022.39L1293.03 1022.48L1293.03 1022.24L1285.33 1029.94ZM1261.39 1029.94H1271.96L1263.7 1021.69H1253.14L1261.39 1029.94ZM1281.39 1015.37L1281.22 1015.2V1025.38L1289.93 1016.66L1289.87 1006.78L1281.39 1015.37ZM1268 1017.31L1275.09 1024.39V1013.45L1268 1006.46V1017.31Z" fill="#FF5BA5"/>
<path d="M1293.36 1143.31L1281.22 1155.61V1162.81L1289.95 1153.96L1293.05 1157.02L1295.96 1157L1296.03 1166.57L1299.84 1162.75L1299.73 1145.78L1305.86 1145.74L1305.96 1161.07L1321.29 1160.96L1321.34 1167.1L1304.06 1167.21L1298.96 1172.31L1311.39 1172.22L1311.42 1175.7L1314.89 1179.12L1308.17 1185.94H1313.56L1325.49 1173.85L1329.85 1178.16L1319.09 1189.08L1330 1199.84L1325.69 1204.21L1313.39 1192.07H1306.19L1315.04 1200.8L1310.73 1205.17L1310.65 1205.09L1310.66 1206.32L1301.08 1206.39L1304.9 1210.2L1321.87 1210.09L1321.91 1216.22L1306.58 1216.33L1306.69 1231.66L1300.55 1231.7L1300.44 1214.42L1295.34 1209.33L1295.43 1221.76L1291.27 1221.78L1289.02 1224.03L1281.22 1216.23V1221.67L1294.22 1234.66L1289.88 1239L1279.04 1228.16L1268.2 1239L1263.86 1234.66L1275.09 1223.44V1216.29L1267.34 1224.03L1264.42 1221.11H1261.19V1210.08L1257.35 1213.92V1232.3H1251.21V1216.97H1235.88V1210.84H1251.76L1256.82 1205.78H1245.86V1200.76L1244.97 1199.87L1252.77 1192.07H1247.33L1234.34 1205.07L1230 1200.73L1240.84 1189.89L1230 1179.05L1234.34 1174.71L1245.56 1185.94H1252.71L1244.97 1178.19L1246.54 1176.62V1171.55H1257.57L1253.73 1167.71H1235.35V1161.57H1250.68V1146.24H1256.81V1162.12L1261.87 1167.18V1156.22H1266.19L1268.27 1154.11L1275.09 1160.83V1155.44L1263 1143.51L1267.31 1139.15L1278.22 1149.91L1288.99 1139L1293.36 1143.31ZM1281.22 1207.56L1289.25 1215.59L1289.17 1203.39L1289.41 1203.39L1281.22 1195.2V1207.56ZM1267.32 1203.95V1215.37L1275.09 1207.61V1196.18L1267.32 1203.95ZM1294.99 1200.29L1305.71 1200.22L1297.63 1192.25L1297.8 1192.07H1286.77L1294.99 1200.29ZM1253.87 1199.65H1262.95L1270.52 1192.07H1261.44L1253.87 1199.65ZM1285.33 1185.94H1299.55L1307 1178.39L1293.03 1178.48L1293.03 1178.24L1285.33 1185.94ZM1261.39 1185.94H1271.96L1263.7 1177.69H1253.14L1261.39 1185.94ZM1281.39 1171.37L1281.22 1171.2V1181.38L1289.93 1172.66L1289.87 1162.78L1281.39 1171.37ZM1268 1173.31L1275.09 1180.39V1169.45L1268 1162.46V1173.31Z" fill="#FF5BA5"/>
</svg>
