<svg width="2560" height="1600" viewBox="0 0 2560 1600" fill="none" xmlns="http://www.w3.org/2000/svg">
<g clip-path="url(#clip0_4_16)">
<rect width="2560" height="1600" fill="white"/>
<path d="M1016.56 173.338L973.359 217.136V242.771L1004.44 211.267L1015.46 222.14L1025.83 222.069L1026.07 256.154L1039.65 242.567L1039.24 182.136L1061.08 181.986L1061.45 236.563L1116.03 236.191L1116.18 258.03L1054.66 258.45L1036.53 276.576L1080.78 276.274L1080.87 288.649L1093.23 300.845L1069.29 325.11H1088.51L1130.95 282.087L1146.5 297.424L1108.17 336.278L1147.02 374.607L1131.68 390.155L1087.89 346.95H1062.25L1093.75 378.027L1078.42 393.575L1078.12 393.278L1078.15 397.679L1044.06 397.91L1057.65 411.497L1118.08 411.085L1118.23 432.924L1063.65 433.295L1064.03 487.873L1042.19 488.021L1041.77 426.501L1023.64 408.375L1023.94 452.626L1009.13 452.727L1001.12 460.733L973.359 432.969V452.313L1019.62 498.579L1004.18 514.021L965.589 475.429L926.996 514.021L911.554 498.579L951.52 458.612V433.153L923.938 460.733L913.537 450.332H902.04V411.066L888.361 424.746V490.175H866.522V435.596H811.943V413.757H868.465L886.467 395.754H847.462V377.889L844.288 374.715L872.053 346.95H852.708L806.442 393.215L791 377.772L829.593 339.18L791 300.587L806.442 285.145L846.409 325.11H871.868L844.288 297.529L849.885 291.933V273.884H889.15L875.472 260.205H810.043V238.366H864.621V183.787H886.46L886.461 240.309L904.463 258.311L904.464 219.306H919.842L927.254 211.792L951.52 235.729V216.515L908.496 174.074L923.833 158.526L962.688 196.855L1001.02 158L1016.56 173.338ZM973.359 402.083L1001.95 430.677L1001.66 387.259L1002.52 387.253L973.359 358.093V402.083ZM923.88 389.228L923.879 429.907L951.52 402.267V361.587L923.88 389.228ZM1022.37 376.218L1060.56 375.958L1031.78 347.563L1032.38 346.95H993.103L1022.37 376.218ZM875.973 373.914H908.307L935.271 346.95H902.938L875.973 373.914ZM987.996 325.11H1038.61L1065.14 298.221L1015.42 298.56L1015.41 297.697L987.996 325.11ZM902.755 325.11H940.377L910.99 295.724L873.366 295.723L902.755 325.11ZM973.973 273.246L973.359 272.641V308.861L1004.37 277.847L1004.13 242.67L973.973 273.246ZM926.303 280.15L951.52 305.367V266.407L926.303 241.53V280.15Z" fill="#6078FF"/>
<path d="M1609.56 129.338L1566.36 173.136V198.771L1597.44 167.267L1608.46 178.14L1618.83 178.069L1619.07 212.154L1632.65 198.567L1632.24 138.136L1654.08 137.986L1654.45 192.563L1709.03 192.191L1709.18 214.03L1647.66 214.45L1629.53 232.576L1673.78 232.274L1673.87 244.649L1686.23 256.845L1662.29 281.11H1681.51L1723.95 238.087L1739.5 253.424L1701.17 292.278L1740.02 330.607L1724.68 346.155L1680.89 302.95H1655.25L1686.75 334.027L1671.42 349.575L1671.12 349.278L1671.15 353.678L1637.06 353.91L1650.65 367.497L1711.08 367.085L1711.23 388.924L1656.65 389.295L1657.03 443.873L1635.19 444.021L1634.77 382.501L1616.64 364.375L1616.94 408.626L1602.13 408.727L1594.12 416.733L1566.36 388.969V408.313L1612.62 454.579L1597.18 470.021L1558.59 431.429L1520 470.021L1504.55 454.579L1544.52 414.612V389.153L1516.94 416.733L1506.54 406.332H1495.04V367.066L1481.36 380.745V446.174H1459.52V391.596H1404.94V369.757H1461.46L1479.47 351.754H1440.46V333.889L1437.29 330.715L1465.05 302.95H1445.71L1399.44 349.215L1384 333.772L1422.59 295.18L1384 256.587L1399.44 241.145L1439.41 281.11H1464.87L1437.29 253.529L1442.88 247.933V229.884H1482.15L1468.47 216.205H1403.04V194.366H1457.62V139.787H1479.46L1479.46 196.309L1497.46 214.311L1497.46 175.306H1512.84L1520.25 167.792L1544.52 191.729V172.515L1501.5 130.074L1516.83 114.526L1555.69 152.855L1594.02 114L1609.56 129.338ZM1566.36 358.083L1594.95 386.677L1594.66 343.259L1595.52 343.253L1566.36 314.093V358.083ZM1516.88 345.228L1516.88 385.907L1544.52 358.267V317.587L1516.88 345.228ZM1615.37 332.218L1653.56 331.957L1624.78 303.563L1625.38 302.95H1586.1L1615.37 332.218ZM1468.97 329.914H1501.31L1528.27 302.95H1495.94L1468.97 329.914ZM1581 281.11H1631.61L1658.14 254.221L1608.42 254.56L1608.41 253.697L1581 281.11ZM1495.75 281.11H1533.38L1503.99 251.724L1466.37 251.723L1495.75 281.11ZM1566.97 229.246L1566.36 228.641V264.861L1597.37 233.847L1597.13 198.67L1566.97 229.246ZM1519.3 236.15L1544.52 261.367V222.407L1519.3 197.53V236.15Z" fill="#BBF2FD"/>
<path d="M375.564 391.338L332.359 435.136V460.771L363.437 429.267L374.459 440.14L384.834 440.069L385.066 474.154L398.653 460.567L398.241 400.136L420.08 399.986L420.451 454.563L475.029 454.191L475.178 476.03L413.657 476.45L395.531 494.576L439.782 494.274L439.866 506.649L452.229 518.845L428.292 543.11H447.507L489.947 500.087L505.495 515.424L467.166 554.278L506.021 592.607L490.684 608.155L446.886 564.95H421.251L452.755 596.027L437.418 611.575L437.117 611.278L437.147 615.678L403.062 615.91L416.649 629.497L477.081 629.085L477.23 650.924L422.653 651.295L423.025 705.873L401.187 706.021L400.768 644.501L382.641 626.375L382.942 670.626L368.13 670.727L360.124 678.733L332.359 650.969V670.313L378.624 716.579L363.182 732.021L324.589 693.429L285.996 732.021L270.554 716.579L310.52 676.612V651.153L282.938 678.733L272.537 668.332H261.04V629.066L247.361 642.745V708.174H225.522V653.596H170.943V631.757H227.465L245.467 613.754H206.462V595.889L203.288 592.715L231.053 564.95H211.708L165.442 611.215L150 595.772L188.593 557.18L150 518.587L165.442 503.145L205.409 543.11H230.868L203.288 515.529L208.885 509.933V491.884H248.15L234.472 478.205H169.043V456.366H223.621V401.787H245.46L245.461 458.309L263.463 476.311L263.464 437.306H278.842L286.254 429.792L310.52 453.729V434.515L267.496 392.074L282.833 376.526L321.688 414.855L360.017 376L375.564 391.338ZM332.359 620.083L360.952 648.677L360.657 605.259L361.52 605.253L332.359 576.093V620.083ZM282.88 607.228L282.879 647.907L310.52 620.267V579.587L282.88 607.228ZM381.37 594.218L419.559 593.957L390.775 565.563L391.381 564.95H352.103L381.37 594.218ZM234.973 591.914H267.307L294.271 564.95H261.938L234.973 591.914ZM346.996 543.11H397.614L424.14 516.221L374.415 516.56L374.409 515.697L346.996 543.11ZM261.755 543.11H299.376L269.989 513.724L232.366 513.723L261.755 543.11ZM332.973 491.246L332.359 490.641V526.861L363.374 495.847L363.134 460.67L332.973 491.246ZM285.303 498.15L310.52 523.367V484.407L285.303 459.53V498.15Z" fill="#BBF2FD"/>
<path d="M2217.56 1055.34L2174.36 1099.14V1124.77L2205.44 1093.27L2216.46 1104.14L2226.83 1104.07L2227.07 1138.15L2240.65 1124.57L2240.24 1064.14L2262.08 1063.99L2262.45 1118.56L2317.03 1118.19L2317.18 1140.03L2255.66 1140.45L2237.53 1158.58L2281.78 1158.27L2281.87 1170.65L2294.23 1182.84L2270.29 1207.11H2289.51L2331.95 1164.09L2347.5 1179.42L2309.17 1218.28L2348.02 1256.61L2332.68 1272.16L2288.89 1228.95H2263.25L2294.75 1260.03L2279.42 1275.58L2279.12 1275.28L2279.15 1279.68L2245.06 1279.91L2258.65 1293.5L2319.08 1293.08L2319.23 1314.92L2264.65 1315.29L2265.03 1369.87L2243.19 1370.02L2242.77 1308.5L2224.64 1290.38L2224.94 1334.63L2210.13 1334.73L2202.12 1342.73L2174.36 1314.97V1334.31L2220.62 1380.58L2205.18 1396.02L2166.59 1357.43L2128 1396.02L2112.55 1380.58L2152.52 1340.61V1315.15L2124.94 1342.73L2114.54 1332.33H2103.04V1293.07L2089.36 1306.75V1372.17H2067.52V1317.6H2012.94V1295.76H2069.46L2087.47 1277.75H2048.46V1259.89L2045.29 1256.71L2073.05 1228.95H2053.71L2007.44 1275.21L1992 1259.77L2030.59 1221.18L1992 1182.59L2007.44 1167.14L2047.41 1207.11H2072.87L2045.29 1179.53L2050.88 1173.93V1155.88H2090.15L2076.47 1142.21H2011.04V1120.37H2065.62V1065.79H2087.46L2087.46 1122.31L2105.46 1140.31L2105.46 1101.31H2120.84L2128.25 1093.79L2152.52 1117.73V1098.51L2109.5 1056.07L2124.83 1040.53L2163.69 1078.86L2202.02 1040L2217.56 1055.34ZM2174.36 1284.08L2202.95 1312.68L2202.66 1269.26L2203.52 1269.25L2174.36 1240.09V1284.08ZM2124.88 1271.23L2124.88 1311.91L2152.52 1284.27V1243.59L2124.88 1271.23ZM2223.37 1258.22L2261.56 1257.96L2232.78 1229.56L2233.38 1228.95H2194.1L2223.37 1258.22ZM2076.97 1255.91H2109.31L2136.27 1228.95H2103.94L2076.97 1255.91ZM2189 1207.11H2239.61L2266.14 1180.22L2216.42 1180.56L2216.41 1179.7L2189 1207.11ZM2103.75 1207.11H2141.38L2111.99 1177.72L2074.37 1177.72L2103.75 1207.11ZM2174.97 1155.25L2174.36 1154.64V1190.86L2205.37 1159.85L2205.13 1124.67L2174.97 1155.25ZM2127.3 1162.15L2152.52 1187.37V1148.41L2127.3 1123.53V1162.15Z" fill="#6078FF"/>
<path d="M2275.56 129.338L2232.36 173.136V198.771L2263.44 167.267L2274.46 178.14L2284.83 178.069L2285.07 212.154L2298.65 198.567L2298.24 138.136L2320.08 137.986L2320.45 192.563L2375.03 192.191L2375.18 214.03L2313.66 214.45L2295.53 232.576L2339.78 232.274L2339.87 244.649L2352.23 256.845L2328.29 281.11H2347.51L2389.95 238.087L2405.5 253.424L2367.17 292.278L2406.02 330.607L2390.68 346.155L2346.89 302.95H2321.25L2352.75 334.027L2337.42 349.575L2337.12 349.278L2337.15 353.678L2303.06 353.91L2316.65 367.497L2377.08 367.085L2377.23 388.924L2322.65 389.295L2323.03 443.873L2301.19 444.021L2300.77 382.501L2282.64 364.375L2282.94 408.626L2268.13 408.727L2260.12 416.733L2232.36 388.969V408.313L2278.62 454.579L2263.18 470.021L2224.59 431.429L2186 470.021L2170.55 454.579L2210.52 414.612V389.153L2182.94 416.733L2172.54 406.332H2161.04V367.066L2147.36 380.745V446.174H2125.52V391.596H2070.94V369.757H2127.46L2145.47 351.754H2106.46V333.889L2103.29 330.715L2131.05 302.95H2111.71L2065.44 349.215L2050 333.772L2088.59 295.18L2050 256.587L2065.44 241.145L2105.41 281.11H2130.87L2103.29 253.529L2108.88 247.933V229.884H2148.15L2134.47 216.205H2069.04V194.366H2123.62V139.787H2145.46L2145.46 196.309L2163.46 214.311L2163.46 175.306H2178.84L2186.25 167.792L2210.52 191.729V172.515L2167.5 130.074L2182.83 114.526L2221.69 152.855L2260.02 114L2275.56 129.338ZM2232.36 358.083L2260.95 386.677L2260.66 343.259L2261.52 343.253L2232.36 314.093V358.083ZM2182.88 345.228L2182.88 385.907L2210.52 358.267V317.587L2182.88 345.228ZM2281.37 332.218L2319.56 331.957L2290.78 303.563L2291.38 302.95H2252.1L2281.37 332.218ZM2134.97 329.914H2167.31L2194.27 302.95H2161.94L2134.97 329.914ZM2247 281.11H2297.61L2324.14 254.221L2274.42 254.56L2274.41 253.697L2247 281.11ZM2161.75 281.11H2199.38L2169.99 251.724L2132.37 251.723L2161.75 281.11ZM2232.97 229.246L2232.36 228.641V264.861L2263.37 233.847L2263.13 198.67L2232.97 229.246ZM2185.3 236.15L2210.52 261.367V222.407L2185.3 197.53V236.15Z" fill="#BBF2FD"/>
<path d="M1301.56 528.338L1258.36 572.136V597.771L1289.44 566.267L1300.46 577.14L1310.83 577.069L1311.07 611.154L1324.65 597.567L1324.24 537.136L1346.08 536.986L1346.45 591.563L1401.03 591.191L1401.18 613.03L1339.66 613.45L1321.53 631.576L1365.78 631.274L1365.87 643.649L1378.23 655.845L1354.29 680.11H1373.51L1415.95 637.087L1431.5 652.424L1393.17 691.278L1432.02 729.607L1416.68 745.155L1372.89 701.95H1347.25L1378.75 733.027L1363.42 748.575L1363.12 748.278L1363.15 752.678L1329.06 752.91L1342.65 766.497L1403.08 766.085L1403.23 787.924L1348.65 788.295L1349.03 842.873L1327.19 843.021L1326.77 781.501L1308.64 763.375L1308.94 807.626L1294.13 807.727L1286.12 815.733L1258.36 787.969V807.313L1304.62 853.579L1289.18 869.021L1250.59 830.429L1212 869.021L1196.55 853.579L1236.52 813.612V788.153L1208.94 815.733L1198.54 805.332H1187.04V766.066L1173.36 779.745V845.174H1151.52V790.596H1096.94V768.757H1153.46L1171.47 750.754H1132.46V732.889L1129.29 729.715L1157.05 701.95H1137.71L1091.44 748.215L1076 732.772L1114.59 694.18L1076 655.587L1091.44 640.145L1131.41 680.11H1156.87L1129.29 652.529L1134.88 646.933V628.884H1174.15L1160.47 615.205H1095.04V593.366H1149.62V538.787H1171.46L1171.46 595.309L1189.46 613.311L1189.46 574.306H1204.84L1212.25 566.792L1236.52 590.729V571.515L1193.5 529.074L1208.83 513.526L1247.69 551.855L1286.02 513L1301.56 528.338ZM1258.36 757.083L1286.95 785.677L1286.66 742.259L1287.52 742.253L1258.36 713.093V757.083ZM1208.88 744.228L1208.88 784.907L1236.52 757.267V716.587L1208.88 744.228ZM1307.37 731.218L1345.56 730.957L1316.78 702.563L1317.38 701.95H1278.1L1307.37 731.218ZM1160.97 728.914H1193.31L1220.27 701.95H1187.94L1160.97 728.914ZM1273 680.11H1323.61L1350.14 653.221L1300.42 653.56L1300.41 652.697L1273 680.11ZM1187.75 680.11H1225.38L1195.99 650.724L1158.37 650.723L1187.75 680.11ZM1258.97 628.246L1258.36 627.641V663.861L1289.37 632.847L1289.13 597.67L1258.97 628.246ZM1211.3 635.15L1236.52 660.367V621.407L1211.3 596.53V635.15Z" fill="#BBF2FD"/>
<path d="M1293.36 987.308L1281.22 999.61V1006.81L1289.95 997.962L1293.05 1001.02L1295.96 1001L1296.03 1010.57L1299.84 1006.75L1299.73 989.779L1305.86 989.737L1305.96 1005.07L1321.29 1004.96L1321.34 1011.1L1304.06 1011.21L1298.96 1016.31L1311.39 1016.22L1311.42 1019.7L1314.89 1023.12L1308.17 1029.94H1313.56L1325.49 1017.85L1329.85 1022.16L1319.09 1033.08L1330 1043.84L1325.69 1048.21L1313.39 1036.07H1306.19L1315.04 1044.8L1310.73 1049.17L1310.65 1049.09L1310.66 1050.32L1301.08 1050.39L1304.9 1054.2L1321.87 1054.09L1321.91 1060.22L1306.58 1060.33L1306.69 1075.66L1300.55 1075.7L1300.44 1058.42L1295.34 1053.33L1295.43 1065.76L1291.27 1065.78L1289.02 1068.03L1281.22 1060.23V1065.67L1294.22 1078.66L1289.88 1083L1279.04 1072.16L1268.2 1083L1263.86 1078.66L1275.09 1067.44V1060.29L1267.34 1068.03L1264.42 1065.11H1261.19V1054.08L1257.35 1057.92V1076.3H1251.21V1060.97H1235.88V1054.84H1251.76L1256.82 1049.78H1245.86V1044.76L1244.97 1043.87L1252.77 1036.07H1247.33L1234.34 1049.07L1230 1044.73L1240.84 1033.89L1230 1023.05L1234.34 1018.71L1245.56 1029.94H1252.71L1244.97 1022.19L1246.54 1020.62V1015.55H1257.57L1253.73 1011.71H1235.35V1005.57H1250.68V990.244H1256.81V1006.12L1261.87 1011.18V1000.22H1266.19L1268.27 998.109L1275.09 1004.83V999.436L1263 987.515L1267.31 983.147L1278.22 993.914L1288.99 983L1293.36 987.308ZM1281.22 1051.56L1289.25 1059.59L1289.17 1047.39L1289.41 1047.39L1281.22 1039.2V1051.56ZM1267.32 1047.95V1059.37L1275.09 1051.61V1040.18L1267.32 1047.95ZM1294.99 1044.29L1305.71 1044.22L1297.63 1036.25L1297.8 1036.07H1286.77L1294.99 1044.29ZM1253.87 1043.65H1262.95L1270.52 1036.07H1261.44L1253.87 1043.65ZM1285.33 1029.94H1299.55L1307 1022.39L1293.03 1022.48L1293.03 1022.24L1285.33 1029.94ZM1261.39 1029.94H1271.96L1263.7 1021.69H1253.14L1261.39 1029.94ZM1281.39 1015.37L1281.22 1015.2V1025.38L1289.93 1016.66L1289.87 1006.78L1281.39 1015.37ZM1268 1017.31L1275.09 1024.39V1013.45L1268 1006.46V1017.31Z" fill="#FF5BA5"/>
<path d="M1293.36 1143.31L1281.22 1155.61V1162.81L1289.95 1153.96L1293.05 1157.02L1295.96 1157L1296.03 1166.57L1299.84 1162.75L1299.73 1145.78L1305.86 1145.74L1305.96 1161.07L1321.29 1160.96L1321.34 1167.1L1304.06 1167.21L1298.96 1172.31L1311.39 1172.22L1311.42 1175.7L1314.89 1179.12L1308.17 1185.94H1313.56L1325.49 1173.85L1329.85 1178.16L1319.09 1189.08L1330 1199.84L1325.69 1204.21L1313.39 1192.07H1306.19L1315.04 1200.8L1310.73 1205.17L1310.65 1205.09L1310.66 1206.32L1301.08 1206.39L1304.9 1210.2L1321.87 1210.09L1321.91 1216.22L1306.58 1216.33L1306.69 1231.66L1300.55 1231.7L1300.44 1214.42L1295.34 1209.33L1295.43 1221.76L1291.27 1221.78L1289.02 1224.03L1281.22 1216.23V1221.67L1294.22 1234.66L1289.88 1239L1279.04 1228.16L1268.2 1239L1263.86 1234.66L1275.09 1223.44V1216.29L1267.34 1224.03L1264.42 1221.11H1261.19V1210.08L1257.35 1213.92V1232.3H1251.21V1216.97H1235.88V1210.84H1251.76L1256.82 1205.78H1245.86V1200.76L1244.97 1199.87L1252.77 1192.07H1247.33L1234.34 1205.07L1230 1200.73L1240.84 1189.89L1230 1179.05L1234.34 1174.71L1245.56 1185.94H1252.71L1244.97 1178.19L1246.54 1176.62V1171.55H1257.57L1253.73 1167.71H1235.35V1161.57H1250.68V1146.24H1256.81V1162.12L1261.87 1167.18V1156.22H1266.19L1268.27 1154.11L1275.09 1160.83V1155.44L1263 1143.51L1267.31 1139.15L1278.22 1149.91L1288.99 1139L1293.36 1143.31ZM1281.22 1207.56L1289.25 1215.59L1289.17 1203.39L1289.41 1203.39L1281.22 1195.2V1207.56ZM1267.32 1203.95V1215.37L1275.09 1207.61V1196.18L1267.32 1203.95ZM1294.99 1200.29L1305.71 1200.22L1297.63 1192.25L1297.8 1192.07H1286.77L1294.99 1200.29ZM1253.87 1199.65H1262.95L1270.52 1192.07H1261.44L1253.87 1199.65ZM1285.33 1185.94H1299.55L1307 1178.39L1293.03 1178.48L1293.03 1178.24L1285.33 1185.94ZM1261.39 1185.94H1271.96L1263.7 1177.69H1253.14L1261.39 1185.94ZM1281.39 1171.37L1281.22 1171.2V1181.38L1289.93 1172.66L1289.87 1162.78L1281.39 1171.37ZM1268 1173.31L1275.09 1180.39V1169.45L1268 1162.46V1173.31Z" fill="#FF5BA5"/>
<path d="M1301.56 -127.662L1258.36 -83.8643V-58.2295L1289.44 -89.7334L1300.46 -78.8604L1310.83 -78.9307L1311.07 -44.8457L1324.65 -58.4326L1324.24 -118.864L1346.08 -119.014L1346.45 -64.4365L1401.03 -64.8086L1401.18 -42.9697L1339.66 -42.5498L1321.53 -24.4238L1365.78 -24.7256L1365.87 -12.3506L1378.23 -0.155273L1354.29 24.1104H1373.51L1415.95 -18.9131L1431.5 -3.57617L1393.17 35.2783L1432.02 73.6074L1416.68 89.1553L1372.89 45.9502H1347.25L1378.75 77.0273L1363.42 92.5752L1363.12 92.2783L1363.15 96.6777L1329.06 96.9102L1342.65 110.497L1403.08 110.085L1403.23 131.924L1348.65 132.295L1349.03 186.873L1327.19 187.021L1326.77 125.501L1308.64 107.375L1308.94 151.626L1294.13 151.727L1286.12 159.733L1258.36 131.969V151.313L1304.62 197.579L1289.18 213.021L1250.59 174.429L1212 213.021L1196.55 197.579L1236.52 157.612V132.153L1208.94 159.733L1198.54 149.332H1187.04V110.066L1173.36 123.745V189.174H1151.52V134.596H1096.94V112.757H1153.46L1171.47 94.7539H1132.46V76.8887L1129.29 73.7148L1157.05 45.9502H1137.71L1091.44 92.2148L1076 76.7725L1114.59 38.1797L1076 -0.413086L1091.44 -15.8555L1131.41 24.1104H1156.87L1129.29 -3.4707L1134.88 -9.06738V-27.1162H1174.15L1160.47 -40.7949H1095.04V-62.6338H1149.62V-117.213H1171.46L1171.46 -60.6914L1189.46 -42.6895L1189.46 -81.6943H1204.84L1212.25 -89.208L1236.52 -65.2705V-84.4854L1193.5 -126.926L1208.83 -142.474L1247.69 -104.145L1286.02 -143L1301.56 -127.662ZM1258.36 101.083L1286.95 129.677L1286.66 86.2588L1287.52 86.2529L1258.36 57.0928V101.083ZM1208.88 88.2275L1208.88 128.907L1236.52 101.267V60.5869L1208.88 88.2275ZM1307.37 75.2178L1345.56 74.957L1316.78 46.5635L1317.38 45.9502H1278.1L1307.37 75.2178ZM1160.97 72.9141H1193.31L1220.27 45.9502H1187.94L1160.97 72.9141ZM1273 24.1104H1323.61L1350.14 -2.7793L1300.42 -2.44043L1300.41 -3.30273L1273 24.1104ZM1187.75 24.1104H1225.38L1195.99 -5.27637L1158.37 -5.27734L1187.75 24.1104ZM1258.97 -27.7539L1258.36 -28.3594V7.86133L1289.37 -23.1533L1289.13 -58.3301L1258.97 -27.7539ZM1211.3 -20.8496L1236.52 4.36719V-34.5928L1211.3 -59.4697V-20.8496Z" fill="#BBF2FD"/>
<path d="M1965.56 528.338L1922.36 572.136V597.771L1953.44 566.267L1964.46 577.14L1974.83 577.069L1975.07 611.154L1988.65 597.567L1988.24 537.136L2010.08 536.986L2010.45 591.563L2065.03 591.191L2065.18 613.03L2003.66 613.45L1985.53 631.576L2029.78 631.274L2029.87 643.649L2042.23 655.845L2018.29 680.11H2037.51L2079.95 637.087L2095.5 652.424L2057.17 691.278L2096.02 729.607L2080.68 745.155L2036.89 701.95H2011.25L2042.75 733.027L2027.42 748.575L2027.12 748.278L2027.15 752.678L1993.06 752.91L2006.65 766.497L2067.08 766.085L2067.23 787.924L2012.65 788.295L2013.03 842.873L1991.19 843.021L1990.77 781.501L1972.64 763.375L1972.94 807.626L1958.13 807.727L1950.12 815.733L1922.36 787.969V807.313L1968.62 853.579L1953.18 869.021L1914.59 830.429L1876 869.021L1860.55 853.579L1900.52 813.612V788.153L1872.94 815.733L1862.54 805.332H1851.04V766.066L1837.36 779.745V845.174H1815.52V790.596H1760.94V768.757H1817.46L1835.47 750.754H1796.46V732.889L1793.29 729.715L1821.05 701.95H1801.71L1755.44 748.215L1740 732.772L1778.59 694.18L1740 655.587L1755.44 640.145L1795.41 680.11H1820.87L1793.29 652.529L1798.88 646.933V628.884H1838.15L1824.47 615.205H1759.04V593.366H1813.62V538.787H1835.46L1835.46 595.309L1853.46 613.311L1853.46 574.306H1868.84L1876.25 566.792L1900.52 590.729V571.515L1857.5 529.074L1872.83 513.526L1911.69 551.855L1950.02 513L1965.56 528.338ZM1922.36 757.083L1950.95 785.677L1950.66 742.259L1951.52 742.253L1922.36 713.093V757.083ZM1872.88 744.228L1872.88 784.907L1900.52 757.267V716.587L1872.88 744.228ZM1971.37 731.218L2009.56 730.957L1980.78 702.563L1981.38 701.95H1942.1L1971.37 731.218ZM1824.97 728.914H1857.31L1884.27 701.95H1851.94L1824.97 728.914ZM1937 680.11H1987.61L2014.14 653.221L1964.42 653.56L1964.41 652.697L1937 680.11ZM1851.75 680.11H1889.38L1859.99 650.724L1822.37 650.723L1851.75 680.11ZM1922.97 628.246L1922.36 627.641V663.861L1953.37 632.847L1953.13 597.67L1922.97 628.246ZM1875.3 635.15L1900.52 660.367V621.407L1875.3 596.53V635.15Z" fill="#6078FF"/>
<path d="M47.5645 747.338L4.35938 791.136V816.771L35.4365 785.267L46.459 796.14L56.834 796.069L57.0664 830.154L70.6533 816.567L70.2412 756.136L92.0801 755.986L92.4512 810.563L147.029 810.191L147.178 832.03L85.6572 832.45L67.5312 850.576L111.782 850.274L111.866 862.649L124.229 874.845L100.292 899.11H119.507L161.947 856.087L177.495 871.424L139.166 910.278L178.021 948.607L162.684 964.155L118.886 920.95H93.251L124.755 952.027L109.418 967.575L109.117 967.278L109.147 971.678L75.0625 971.91L88.6494 985.497L149.081 985.085L149.23 1006.92L94.6533 1007.29L95.0254 1061.87L73.1865 1062.02L72.7676 1000.5L54.6406 982.375L54.9424 1026.63L40.1299 1026.73L32.124 1034.73L4.35938 1006.97V1026.31L50.624 1072.58L35.1816 1088.02L-3.41113 1049.43L-42.0039 1088.02L-57.4463 1072.58L-17.4805 1032.61V1007.15L-45.0615 1034.73L-55.4629 1024.33H-66.96V985.066L-80.6387 998.745V1064.17H-102.478V1009.6H-157.057V987.757H-100.535L-82.5332 969.754H-121.538V951.889L-124.712 948.715L-96.9473 920.95H-116.292L-162.558 967.215L-178 951.772L-139.407 913.18L-178 874.587L-162.558 859.145L-122.591 899.11H-97.1318L-124.712 871.529L-119.115 865.933V847.884H-79.8496L-93.5283 834.205H-158.957V812.366H-104.379V757.787H-82.54L-82.5391 814.309L-64.5371 832.311L-64.5361 793.306H-49.1582L-41.7461 785.792L-17.4805 809.729V790.515L-60.5039 748.074L-45.167 732.526L-6.3125 770.855L32.0166 732L47.5645 747.338ZM4.35938 976.083L32.9521 1004.68L32.6572 961.259L33.5195 961.253L4.35938 932.093V976.083ZM-45.1201 963.228L-45.1211 1003.91L-17.4805 976.267V935.587L-45.1201 963.228ZM53.3701 950.218L91.5586 949.957L62.7754 921.563L63.3809 920.95H24.1025L53.3701 950.218ZM-93.0273 947.914H-60.6934L-33.7295 920.95H-66.0615L-93.0273 947.914ZM18.9961 899.11H69.6143L96.1396 872.221L46.415 872.56L46.4092 871.697L18.9961 899.11ZM-66.2451 899.11H-28.624L-58.0107 869.724L-95.6338 869.723L-66.2451 899.11ZM4.97266 847.246L4.35938 846.641V882.861L35.374 851.847L35.1338 816.67L4.97266 847.246ZM-42.6973 854.15L-17.4805 879.367V840.407L-42.6973 815.53V854.15Z" fill="#6078FF"/>
<path d="M259.564 35.3379L216.359 79.1357V104.771L247.437 73.2666L258.459 84.1396L268.834 84.0693L269.066 118.154L282.653 104.567L282.241 44.1357L304.08 43.9863L304.451 98.5635L359.029 98.1914L359.178 120.03L297.657 120.45L279.531 138.576L323.782 138.274L323.866 150.649L336.229 162.845L312.292 187.11H331.507L373.947 144.087L389.495 159.424L351.166 198.278L390.021 236.607L374.684 252.155L330.886 208.95H305.251L336.755 240.027L321.418 255.575L321.117 255.278L321.147 259.678L287.062 259.91L300.649 273.497L361.081 273.085L361.23 294.924L306.653 295.295L307.025 349.873L285.187 350.021L284.768 288.501L266.641 270.375L266.942 314.626L252.13 314.727L244.124 322.733L216.359 294.969V314.313L262.624 360.579L247.182 376.021L208.589 337.429L169.996 376.021L154.554 360.579L194.52 320.612V295.153L166.938 322.733L156.537 312.332H145.04V273.066L131.361 286.745V352.174H109.522V297.596H54.9434V275.757H111.465L129.467 257.754H90.4619V239.889L87.2881 236.715L115.053 208.95H95.708L49.4424 255.215L34 239.772L72.5928 201.18L34 162.587L49.4424 147.145L89.4092 187.11H114.868L87.2881 159.529L92.8848 153.933V135.884H132.15L118.472 122.205H53.043V100.366H107.621V45.7871H129.46L129.461 102.309L147.463 120.311L147.464 81.3057H162.842L170.254 73.792L194.52 97.7295V78.5146L151.496 36.0742L166.833 20.5264L205.688 58.8555L244.017 20L259.564 35.3379ZM216.359 264.083L244.952 292.677L244.657 249.259L245.52 249.253L216.359 220.093V264.083ZM166.88 251.228L166.879 291.907L194.52 264.267V223.587L166.88 251.228ZM265.37 238.218L303.559 237.957L274.775 209.563L275.381 208.95H236.103L265.37 238.218ZM118.973 235.914H151.307L178.271 208.95H145.938L118.973 235.914ZM230.996 187.11H281.614L308.14 160.221L258.415 160.56L258.409 159.697L230.996 187.11ZM145.755 187.11H183.376L153.989 157.724L116.366 157.723L145.755 187.11ZM216.973 135.246L216.359 134.641V170.861L247.374 139.847L247.134 104.67L216.973 135.246ZM169.303 142.15L194.52 167.367V128.407L169.303 103.53V142.15Z" fill="#6078FF"/>
<path d="M779.564 544.338L736.359 588.136V613.771L767.437 582.267L778.459 593.14L788.834 593.069L789.066 627.154L802.653 613.567L802.241 553.136L824.08 552.986L824.451 607.563L879.029 607.191L879.178 629.03L817.657 629.45L799.531 647.576L843.782 647.274L843.866 659.649L856.229 671.845L832.292 696.11H851.507L893.947 653.087L909.495 668.424L871.166 707.278L910.021 745.607L894.684 761.155L850.886 717.95H825.251L856.755 749.027L841.418 764.575L841.117 764.278L841.147 768.678L807.062 768.91L820.649 782.497L881.081 782.085L881.23 803.924L826.653 804.295L827.025 858.873L805.187 859.021L804.768 797.501L786.641 779.375L786.942 823.626L772.13 823.727L764.124 831.733L736.359 803.969V823.313L782.624 869.579L767.182 885.021L728.589 846.429L689.996 885.021L674.554 869.579L714.52 829.612V804.153L686.938 831.733L676.537 821.332H665.04V782.066L651.361 795.745V861.174H629.522V806.596H574.943V784.757H631.465L649.467 766.754H610.462V748.889L607.288 745.715L635.053 717.95H615.708L569.442 764.215L554 748.772L592.593 710.18L554 671.587L569.442 656.145L609.409 696.11H634.868L607.288 668.529L612.885 662.933V644.884H652.15L638.472 631.205H573.043V609.366H627.621V554.787H649.46L649.461 611.309L667.463 629.311L667.464 590.306H682.842L690.254 582.792L714.52 606.729V587.515L671.496 545.074L686.833 529.526L725.688 567.855L764.017 529L779.564 544.338ZM736.359 773.083L764.952 801.677L764.657 758.259L765.52 758.253L736.359 729.093V773.083ZM686.88 760.228L686.879 800.907L714.52 773.267V732.587L686.88 760.228ZM785.37 747.218L823.559 746.957L794.775 718.563L795.381 717.95H756.103L785.37 747.218ZM638.973 744.914H671.307L698.271 717.95H665.938L638.973 744.914ZM750.996 696.11H801.614L828.14 669.221L778.415 669.56L778.409 668.697L750.996 696.11ZM665.755 696.11H703.376L673.989 666.724L636.366 666.723L665.755 696.11ZM736.973 644.246L736.359 643.641V679.861L767.374 648.847L767.134 613.67L736.973 644.246ZM689.303 651.15L714.52 676.367V637.407L689.303 612.53V651.15Z" fill="#BBF2FD"/>
<path d="M487.564 1055.34L444.359 1099.14V1124.77L475.437 1093.27L486.459 1104.14L496.834 1104.07L497.066 1138.15L510.653 1124.57L510.241 1064.14L532.08 1063.99L532.451 1118.56L587.029 1118.19L587.178 1140.03L525.657 1140.45L507.531 1158.58L551.782 1158.27L551.866 1170.65L564.229 1182.84L540.292 1207.11H559.507L601.947 1164.09L617.495 1179.42L579.166 1218.28L618.021 1256.61L602.684 1272.16L558.886 1228.95H533.251L564.755 1260.03L549.418 1275.58L549.117 1275.28L549.147 1279.68L515.062 1279.91L528.649 1293.5L589.081 1293.08L589.23 1314.92L534.653 1315.29L535.025 1369.87L513.187 1370.02L512.768 1308.5L494.641 1290.38L494.942 1334.63L480.13 1334.73L472.124 1342.73L444.359 1314.97V1334.31L490.624 1380.58L475.182 1396.02L436.589 1357.43L397.996 1396.02L382.554 1380.58L422.52 1340.61V1315.15L394.938 1342.73L384.537 1332.33H373.04V1293.07L359.361 1306.75V1372.17H337.522V1317.6H282.943V1295.76H339.465L357.467 1277.75H318.462V1259.89L315.288 1256.71L343.053 1228.95H323.708L277.442 1275.21L262 1259.77L300.593 1221.18L262 1182.59L277.442 1167.14L317.409 1207.11H342.868L315.288 1179.53L320.885 1173.93V1155.88H360.15L346.472 1142.21H281.043V1120.37H335.621V1065.79H357.46L357.461 1122.31L375.463 1140.31L375.464 1101.31H390.842L398.254 1093.79L422.52 1117.73V1098.51L379.496 1056.07L394.833 1040.53L433.688 1078.86L472.017 1040L487.564 1055.34ZM444.359 1284.08L472.952 1312.68L472.657 1269.26L473.52 1269.25L444.359 1240.09V1284.08ZM394.88 1271.23L394.879 1311.91L422.52 1284.27V1243.59L394.88 1271.23ZM493.37 1258.22L531.559 1257.96L502.775 1229.56L503.381 1228.95H464.103L493.37 1258.22ZM346.973 1255.91H379.307L406.271 1228.95H373.938L346.973 1255.91ZM458.996 1207.11H509.614L536.14 1180.22L486.415 1180.56L486.409 1179.7L458.996 1207.11ZM373.755 1207.11H411.376L381.989 1177.72L344.366 1177.72L373.755 1207.11ZM444.973 1155.25L444.359 1154.64V1190.86L475.374 1159.85L475.134 1124.67L444.973 1155.25ZM397.303 1162.15L422.52 1187.37V1148.41L397.303 1123.53V1162.15Z" fill="#BBF2FD"/>
<path d="M2607.56 480.338L2564.36 524.136V549.771L2595.44 518.267L2606.46 529.14L2616.83 529.069L2617.07 563.154L2630.65 549.567L2630.24 489.136L2652.08 488.986L2652.45 543.563L2707.03 543.191L2707.18 565.03L2645.66 565.45L2627.53 583.576L2671.78 583.274L2671.87 595.649L2684.23 607.845L2660.29 632.11H2679.51L2721.95 589.087L2737.5 604.424L2699.17 643.278L2738.02 681.607L2722.68 697.155L2678.89 653.95H2653.25L2684.75 685.027L2669.42 700.575L2669.12 700.278L2669.15 704.678L2635.06 704.91L2648.65 718.497L2709.08 718.085L2709.23 739.924L2654.65 740.295L2655.03 794.873L2633.19 795.021L2632.77 733.501L2614.64 715.375L2614.94 759.626L2600.13 759.727L2592.12 767.733L2564.36 739.969V759.313L2610.62 805.579L2595.18 821.021L2556.59 782.429L2518 821.021L2502.55 805.579L2542.52 765.612V740.153L2514.94 767.733L2504.54 757.332H2493.04V718.066L2479.36 731.745V797.174H2457.52V742.596H2402.94V720.757H2459.46L2477.47 702.754H2438.46V684.889L2435.29 681.715L2463.05 653.95H2443.71L2397.44 700.215L2382 684.772L2420.59 646.18L2382 607.587L2397.44 592.145L2437.41 632.11H2462.87L2435.29 604.529L2440.88 598.933V580.884H2480.15L2466.47 567.205H2401.04V545.366H2455.62V490.787H2477.46L2477.46 547.309L2495.46 565.311L2495.46 526.306H2510.84L2518.25 518.792L2542.52 542.729V523.515L2499.5 481.074L2514.83 465.526L2553.69 503.855L2592.02 465L2607.56 480.338ZM2564.36 709.083L2592.95 737.677L2592.66 694.259L2593.52 694.253L2564.36 665.093V709.083ZM2514.88 696.228L2514.88 736.907L2542.52 709.267V668.587L2514.88 696.228ZM2613.37 683.218L2651.56 682.957L2622.78 654.563L2623.38 653.95H2584.1L2613.37 683.218ZM2466.97 680.914H2499.31L2526.27 653.95H2493.94L2466.97 680.914ZM2579 632.11H2629.61L2656.14 605.221L2606.42 605.56L2606.41 604.697L2579 632.11ZM2493.75 632.11H2531.38L2501.99 602.724L2464.37 602.723L2493.75 632.11ZM2564.97 580.246L2564.36 579.641V615.861L2595.37 584.847L2595.13 549.67L2564.97 580.246ZM2517.3 587.15L2542.52 612.367V573.407L2517.3 548.53V587.15Z" fill="#BBF2FD"/>
<path d="M1978.56 -201.662L1935.36 -157.864V-132.229L1966.44 -163.733L1977.46 -152.86L1987.83 -152.931L1988.07 -118.846L2001.65 -132.433L2001.24 -192.864L2023.08 -193.014L2023.45 -138.437L2078.03 -138.809L2078.18 -116.97L2016.66 -116.55L1998.53 -98.4238L2042.78 -98.7256L2042.87 -86.3506L2055.23 -74.1553L2031.29 -49.8896H2050.51L2092.95 -92.9131L2108.5 -77.5762L2070.17 -38.7217L2109.02 -0.392578L2093.68 15.1553L2049.89 -28.0498H2024.25L2055.75 3.02734L2040.42 18.5752L2040.12 18.2783L2040.15 22.6777L2006.06 22.9102L2019.65 36.4971L2080.08 36.085L2080.23 57.9238L2025.65 58.2949L2026.03 112.873L2004.19 113.021L2003.77 51.501L1985.64 33.375L1985.94 77.626L1971.13 77.7266L1963.12 85.7334L1935.36 57.9688V77.3135L1981.62 123.579L1966.18 139.021L1927.59 100.429L1889 139.021L1873.55 123.579L1913.52 83.6123V58.1533L1885.94 85.7334L1875.54 75.332H1864.04V36.0664L1850.36 49.7451V115.174H1828.52V60.5957H1773.94V38.7568H1830.46L1848.47 20.7539H1809.46V2.88867L1806.29 -0.285156L1834.05 -28.0498H1814.71L1768.44 18.2148L1753 2.77246L1791.59 -35.8203L1753 -74.4131L1768.44 -89.8555L1808.41 -49.8896H1833.87L1806.29 -77.4707L1811.88 -83.0674V-101.116H1851.15L1837.47 -114.795H1772.04V-136.634H1826.62V-191.213H1848.46L1848.46 -134.691L1866.46 -116.689L1866.46 -155.694H1881.84L1889.25 -163.208L1913.52 -139.271V-158.485L1870.5 -200.926L1885.83 -216.474L1924.69 -178.145L1963.02 -217L1978.56 -201.662ZM1935.36 27.083L1963.95 55.6768L1963.66 12.2588L1964.52 12.2529L1935.36 -16.9072V27.083ZM1885.88 14.2275L1885.88 54.9072L1913.52 27.2666V-13.4131L1885.88 14.2275ZM1984.37 1.21777L2022.56 0.957031L1993.78 -27.4365L1994.38 -28.0498H1955.1L1984.37 1.21777ZM1837.97 -1.08594H1870.31L1897.27 -28.0498H1864.94L1837.97 -1.08594ZM1950 -49.8896H2000.61L2027.14 -76.7793L1977.42 -76.4404L1977.41 -77.3027L1950 -49.8896ZM1864.75 -49.8896H1902.38L1872.99 -79.2764L1835.37 -79.2773L1864.75 -49.8896ZM1935.97 -101.754L1935.36 -102.359V-66.1387L1966.37 -97.1533L1966.13 -132.33L1935.97 -101.754ZM1888.3 -94.8496L1913.52 -69.6328V-108.593L1888.3 -133.47V-94.8496Z" fill="#BBF2FD"/>
<path d="M679.564 -226.662L636.359 -182.864V-157.229L667.437 -188.733L678.459 -177.86L688.834 -177.931L689.066 -143.846L702.653 -157.433L702.241 -217.864L724.08 -218.014L724.451 -163.437L779.029 -163.809L779.178 -141.97L717.657 -141.55L699.531 -123.424L743.782 -123.726L743.866 -111.351L756.229 -99.1553L732.292 -74.8896H751.507L793.947 -117.913L809.495 -102.576L771.166 -63.7217L810.021 -25.3926L794.684 -9.84473L750.886 -53.0498H725.251L756.755 -21.9727L741.418 -6.4248L741.117 -6.72168L741.147 -2.32227L707.062 -2.08984L720.649 11.4971L781.081 11.085L781.23 32.9238L726.653 33.2949L727.025 87.873L705.187 88.0215L704.768 26.501L686.641 8.375L686.942 52.626L672.13 52.7266L664.124 60.7334L636.359 32.9688V52.3135L682.624 98.5791L667.182 114.021L628.589 75.4287L589.996 114.021L574.554 98.5791L614.52 58.6123V33.1533L586.938 60.7334L576.537 50.332H565.04V11.0664L551.361 24.7451V90.1738H529.522V35.5957H474.943V13.7568H531.465L549.467 -4.24609H510.462V-22.1113L507.288 -25.2852L535.053 -53.0498H515.708L469.442 -6.78516L454 -22.2275L492.593 -60.8203L454 -99.4131L469.442 -114.855L509.409 -74.8896H534.868L507.288 -102.471L512.885 -108.067V-126.116H552.15L538.472 -139.795H473.043V-161.634H527.621V-216.213H549.46L549.461 -159.691L567.463 -141.689L567.464 -180.694H582.842L590.254 -188.208L614.52 -164.271V-183.485L571.496 -225.926L586.833 -241.474L625.688 -203.145L664.017 -242L679.564 -226.662ZM636.359 2.08301L664.952 30.6768L664.657 -12.7412L665.52 -12.7471L636.359 -41.9072V2.08301ZM586.88 -10.7725L586.879 29.9072L614.52 2.2666V-38.4131L586.88 -10.7725ZM685.37 -23.7822L723.559 -24.043L694.775 -52.4365L695.381 -53.0498H656.103L685.37 -23.7822ZM538.973 -26.0859H571.307L598.271 -53.0498H565.938L538.973 -26.0859ZM650.996 -74.8896H701.614L728.14 -101.779L678.415 -101.44L678.409 -102.303L650.996 -74.8896ZM565.755 -74.8896H603.376L573.989 -104.276L536.366 -104.277L565.755 -74.8896ZM636.973 -126.754L636.359 -127.359V-91.1387L667.374 -122.153L667.134 -157.33L636.973 -126.754ZM589.303 -119.85L614.52 -94.6328V-133.593L589.303 -158.47V-119.85Z" fill="#BBF2FD"/>
<path d="M2590.56 -201.662L2547.36 -157.864V-132.229L2578.44 -163.733L2589.46 -152.86L2599.83 -152.931L2600.07 -118.846L2613.65 -132.433L2613.24 -192.864L2635.08 -193.014L2635.45 -138.437L2690.03 -138.809L2690.18 -116.97L2628.66 -116.55L2610.53 -98.4238L2654.78 -98.7256L2654.87 -86.3506L2667.23 -74.1553L2643.29 -49.8896H2662.51L2704.95 -92.9131L2720.5 -77.5762L2682.17 -38.7217L2721.02 -0.392578L2705.68 15.1553L2661.89 -28.0498H2636.25L2667.75 3.02734L2652.42 18.5752L2652.12 18.2783L2652.15 22.6777L2618.06 22.9102L2631.65 36.4971L2692.08 36.085L2692.23 57.9238L2637.65 58.2949L2638.03 112.873L2616.19 113.021L2615.77 51.501L2597.64 33.375L2597.94 77.626L2583.13 77.7266L2575.12 85.7334L2547.36 57.9688V77.3135L2593.62 123.579L2578.18 139.021L2539.59 100.429L2501 139.021L2485.55 123.579L2525.52 83.6123V58.1533L2497.94 85.7334L2487.54 75.332H2476.04V36.0664L2462.36 49.7451V115.174H2440.52V60.5957H2385.94V38.7568H2442.46L2460.47 20.7539H2421.46V2.88867L2418.29 -0.285156L2446.05 -28.0498H2426.71L2380.44 18.2148L2365 2.77246L2403.59 -35.8203L2365 -74.4131L2380.44 -89.8555L2420.41 -49.8896H2445.87L2418.29 -77.4707L2423.88 -83.0674V-101.116H2463.15L2449.47 -114.795H2384.04V-136.634H2438.62V-191.213H2460.46L2460.46 -134.691L2478.46 -116.689L2478.46 -155.694H2493.84L2501.25 -163.208L2525.52 -139.271V-158.485L2482.5 -200.926L2497.83 -216.474L2536.69 -178.145L2575.02 -217L2590.56 -201.662ZM2547.36 27.083L2575.95 55.6768L2575.66 12.2588L2576.52 12.2529L2547.36 -16.9072V27.083ZM2497.88 14.2275L2497.88 54.9072L2525.52 27.2666V-13.4131L2497.88 14.2275ZM2596.37 1.21777L2634.56 0.957031L2605.78 -27.4365L2606.38 -28.0498H2567.1L2596.37 1.21777ZM2449.97 -1.08594H2482.31L2509.27 -28.0498H2476.94L2449.97 -1.08594ZM2562 -49.8896H2612.61L2639.14 -76.7793L2589.42 -76.4404L2589.41 -77.3027L2562 -49.8896ZM2476.75 -49.8896H2514.38L2484.99 -79.2764L2447.37 -79.2773L2476.75 -49.8896ZM2547.97 -101.754L2547.36 -102.359V-66.1387L2578.37 -97.1533L2578.13 -132.33L2547.97 -101.754ZM2500.3 -94.8496L2525.52 -69.6328V-108.593L2500.3 -133.47V-94.8496Z" fill="#6078FF"/>
<path d="M764.114 1256V1230.43L860.136 1125.32C871.405 1113.01 880.686 1102.31 887.977 1093.22C895.269 1084.03 900.667 1075.41 904.17 1067.36C907.769 1059.22 909.568 1050.7 909.568 1041.8C909.568 1031.57 907.106 1022.71 902.182 1015.23C897.352 1007.75 890.723 1001.98 882.295 997.903C873.867 993.831 864.398 991.795 853.886 991.795C842.712 991.795 832.958 994.116 824.625 998.756C816.386 1003.3 809.994 1009.69 805.449 1017.93C800.998 1026.17 798.773 1035.83 798.773 1046.91H765.25C765.25 1029.86 769.18 1014.9 777.04 1002.02C784.9 989.144 795.6 979.106 809.142 971.909C822.778 964.712 838.072 961.114 855.023 961.114C872.068 961.114 887.172 964.712 900.335 971.909C913.498 979.106 923.82 988.812 931.301 1001.03C938.782 1013.24 942.523 1026.83 942.523 1041.8C942.523 1052.5 940.581 1062.96 936.699 1073.19C932.911 1083.32 926.282 1094.64 916.812 1107.14C907.438 1119.54 894.417 1134.69 877.75 1152.59L812.409 1222.48V1224.75H947.636V1256H764.114Z" fill="#FF5BA5"/>
<path d="M1130.39 965.091V1256H1095.16V1002.02H1093.45L1022.43 1049.18V1013.39L1095.16 965.091H1130.39Z" fill="#FF5BA5"/>
<path d="M1663.11 1256V1230.43L1759.14 1125.32C1770.41 1113.01 1779.69 1102.31 1786.98 1093.22C1794.27 1084.03 1799.67 1075.41 1803.17 1067.36C1806.77 1059.22 1808.57 1050.7 1808.57 1041.8C1808.57 1031.57 1806.11 1022.71 1801.18 1015.23C1796.35 1007.75 1789.72 1001.98 1781.3 997.903C1772.87 993.831 1763.4 991.795 1752.89 991.795C1741.71 991.795 1731.96 994.116 1723.62 998.756C1715.39 1003.3 1708.99 1009.69 1704.45 1017.93C1700 1026.17 1697.77 1035.83 1697.77 1046.91H1664.25C1664.25 1029.86 1668.18 1014.9 1676.04 1002.02C1683.9 989.144 1694.6 979.106 1708.14 971.909C1721.78 964.712 1737.07 961.114 1754.02 961.114C1771.07 961.114 1786.17 964.712 1799.34 971.909C1812.5 979.106 1822.82 988.812 1830.3 1001.03C1837.78 1013.24 1841.52 1026.83 1841.52 1041.8C1841.52 1052.5 1839.58 1062.96 1835.7 1073.19C1831.91 1083.32 1825.28 1094.64 1815.81 1107.14C1806.44 1119.54 1793.42 1134.69 1776.75 1152.59L1711.41 1222.48V1224.75H1846.64V1256H1663.11Z" fill="#FF5BA5"/>
<path d="M1378.3 1196.34V1167.36L1506.14 965.091H1527.16V1009.98H1512.95L1416.36 1162.82V1165.09H1588.52V1196.34H1378.3ZM1515.23 1256V1187.53V1174.04V965.091H1548.75V1256H1515.23Z" fill="#FF5BA5"/>
</g>
<rect x="0.5" y="0.5" width="2559" height="1599" stroke="black"/>
<defs>
<clipPath id="clip0_4_16">
<rect width="2560" height="1600" fill="white"/>
</clipPath>
</defs>
</svg>
