<svg width="357" height="357" viewBox="0 0 357 357" fill="none" xmlns="http://www.w3.org/2000/svg">
<path fill-rule="evenodd" clip-rule="evenodd" d="M225.564 15.3379L182.359 59.1357V84.7705L213.437 53.2666L224.459 64.1396L234.834 64.0693L235.066 98.1543L248.653 84.5674L248.241 24.1357L270.08 23.9863L270.451 78.5635L325.029 78.1914L325.178 100.03L263.657 100.45L245.531 118.576L289.782 118.274L289.866 130.649L302.229 142.845L278.292 167.11H297.507L339.947 124.087L355.495 139.424L317.166 178.278L356.021 216.607L340.684 232.155L296.886 188.95H271.251L302.755 220.027L287.418 235.575L287.117 235.278L287.147 239.678L253.062 239.91L266.649 253.497L327.081 253.085L327.23 274.924L272.653 275.295L273.025 329.873L251.187 330.021L250.768 268.501L232.641 250.375L232.942 294.626L218.13 294.727L210.124 302.733L182.359 274.969V294.313L228.624 340.579L213.182 356.021L174.589 317.429L135.996 356.021L120.554 340.579L160.52 300.612V275.153L132.938 302.733L122.537 292.332H111.04V253.066L97.3613 266.745V332.174H75.5225V277.596H20.9434V255.757H77.4648L95.4668 237.754H56.4619V219.889L53.2881 216.715L81.0527 188.95H61.708L15.4424 235.215L0 219.772L38.5928 181.18L0 142.587L15.4424 127.145L55.4092 167.11H80.8682L53.2881 139.529L58.8848 133.933V115.884H98.1504L84.4717 102.205H19.043V80.3662H73.6211V25.7871H95.46L95.4609 82.3086L113.463 100.311L113.464 61.3057H128.842L136.254 53.792L160.52 77.7295V58.5146L117.496 16.0742L132.833 0.526367L171.688 38.8555L210.017 0L225.564 15.3379Z" fill="#BBF2FD"/>
</svg>
