<svg width="391" height="391" viewBox="0 0 391 391" fill="none" xmlns="http://www.w3.org/2000/svg">
<path d="M352.57 0.0126953C373.678 0.547254 390.625 17.8258 390.625 39.0625V351.562L390.612 352.57C390.086 373.343 373.343 390.086 352.57 390.612L351.562 390.625H210.938V367.188H351.562C360.192 367.187 367.187 360.192 367.188 351.562V39.0625C367.187 30.4331 360.192 23.4375 351.562 23.4375H39.0625C30.4331 23.4375 23.4375 30.433 23.4375 39.0625V351.562C23.4375 360.192 30.433 367.187 39.0625 367.188H205.938V390.625H39.0625L38.0547 390.612C17.2817 390.086 0.538768 373.343 0.0126953 352.57L0 351.562V39.0625C4.95531e-06 17.8258 16.9468 0.547249 38.0547 0.0126953L39.0625 0H351.562L352.57 0.0126953Z" fill="white"/>
</svg>
