<svg width="80" height="80" viewBox="0 0 80 80" fill="none" xmlns="http://www.w3.org/2000/svg">
<path id="r1" d="M40 0V7H12C9.23858 7 7 9.23858 7 12V68C7 70.7614 9.23857 73 12 73H40V80H12L11.6904 79.9961C5.30896 79.8345 0.165501 74.691 0.00390625 68.3096L0 68V12C0 5.47608 5.20608 0.168106 11.6904 0.00390625L12 0H40Z" fill="white"/>
<path id="r2" d="M40 80V73H68C70.7614 73 73 70.7614 73 68V12C73 9.23858 70.7614 7 68 7H40V0H68L68.3096 0.00390625C74.691 0.165504 79.8345 5.30896 79.9961 11.6904L80 12V68C80 74.5239 74.7939 79.8319 68.3096 79.9961L68 80H40Z" fill="white"/>
</svg>
